# File created by Blade
# Date/Time:  Wed Sep 24 19:10:19 2014
# Frame Rate: 120.000 fps
#------------------------------------------------------
:FULLY-SPECIFIED
:DEGREES
701
root -7.761766 32.620167 -3.192837 3.640546 -19.057434 -2.385908
Spine -6.949571 4.571440 8.829232
Head 6.787783 -12.446800 1.917087
LeftShoulder -9.689380 18.996991 12.939407
LeftArm 10.357079 -30.350094 -65.634387
LeftForeArm 7.279040 0.000000 68.007792
LeftHand -36.718156 -0.000000 46.099667
LeftHandThumb1 -26.253704 0.000000 33.147579
RightShoulder -20.269822 8.282707 -20.297531
RightArm -17.216178 -24.244634 89.749024
RightForeArm -20.920766 -0.000000 22.228147
RightHand -4.964534 0.000000 10.784512
RightHandThumb1 -24.326973 -0.000000 -32.862282
LeftUpLeg -97.440348 2.342507 -37.609702
LeftLeg 112.070012 -0.000000 -0.000000
LeftFoot 35.179399 16.368716 -24.285775
LeftToeBase 5.192893 -0.000000 -0.000000
RightUpLeg -6.197395 2.661398 6.813169
RightLeg 14.035552 -0.000000 -0.000000
RightFoot -13.197873 1.915656 -8.119819
RightToeBase -1.163455 -0.000000 0.000000
702
root -7.743382 32.629879 -3.194890 3.615486 -19.071389 -2.262210
Spine -6.918295 4.573057 8.689688
Head 6.727511 -12.448368 1.951009
LeftShoulder -9.727288 19.013060 12.923367
LeftArm 10.376244 -30.504148 -65.690564
LeftForeArm 7.320475 0.000000 67.958613
LeftHand -36.702028 -0.000000 46.217301
LeftHandThumb1 -26.253704 0.000000 33.147579
RightShoulder -20.260771 8.328033 -20.302247
RightArm -17.255879 -24.369451 89.905003
RightForeArm -20.953519 -0.000000 22.329730
RightHand -4.986417 -0.000000 10.807714
RightHandThumb1 -24.326973 -0.000000 -32.862282
LeftUpLeg -97.319558 2.425691 -37.420434
LeftLeg 111.765258 -0.000000 -0.000000
LeftFoot 35.163467 16.593723 -24.358753
LeftToeBase 4.911407 -0.000000 -0.000000
RightUpLeg -6.181981 2.700040 6.674826
RightLeg 13.941570 -0.000000 -0.000000
RightFoot -13.160163 1.863401 -8.068140
RightToeBase -1.077782 -0.000000 0.000000
703
root -7.723641 32.639789 -3.200781 3.610404 -19.078035 -2.131992
Spine -6.905194 4.564522 8.545232
Head 6.661441 -12.435069 1.970914
LeftShoulder -9.743935 19.031780 12.912654
LeftArm 10.385668 -30.671174 -65.729760
LeftForeArm 7.281294 0.000000 67.892656
LeftHand -36.626928 -0.000000 46.303233
LeftHandThumb1 -26.253704 0.000000 33.147579
RightShoulder -20.242800 8.357572 -20.288607
RightArm -17.271624 -24.424580 90.018965
RightForeArm -21.021476 -0.000000 22.472071
RightHand -4.977210 -0.000000 10.873905
RightHandThumb1 -24.326973 -0.000000 -32.862282
LeftUpLeg -97.202837 2.448210 -37.264640
LeftLeg 111.468793 -0.000000 -0.000000
LeftFoot 34.942532 16.765870 -24.160159
LeftToeBase 5.335687 -0.000000 -0.000000
RightUpLeg -6.205536 2.741929 6.527116
RightLeg 13.868177 -0.000000 -0.000000
RightFoot -13.098085 1.764946 -8.107004
RightToeBase -1.155585 -0.000000 0.000000
704
root -7.702682 32.647900 -3.206210 3.608569 -19.112844 -2.002969
Spine -6.886947 4.590712 8.404361
Head 6.580876 -12.422011 2.001830
LeftShoulder -9.741285 19.002622 12.941765
LeftArm 10.323976 -30.812652 -65.771011
LeftForeArm 7.344110 -0.000000 67.836727
LeftHand -36.619343 0.000000 46.332357
LeftHandThumb1 -26.253704 0.000000 33.147579
RightShoulder -20.253344 8.342827 -20.295872
RightArm -17.228656 -24.501741 90.123154
RightForeArm -21.049946 -0.000000 22.594043
RightHand -4.930949 -0.000000 10.815238
RightHandThumb1 -24.326973 -0.000000 -32.862282
LeftUpLeg -97.123561 2.465179 -37.093593
LeftLeg 111.196266 -0.000000 -0.000000
LeftFoot 34.834767 16.976134 -24.192930
LeftToeBase 5.329789 -0.000000 -0.000000
RightUpLeg -6.249700 2.747261 6.376156
RightLeg 13.834296 -0.000000 -0.000000
RightFoot -13.100354 1.694742 -8.026598
RightToeBase -1.031627 -0.000000 0.000000
705
root -7.680030 32.656132 -3.211363 3.599879 -19.153955 -1.871429
Spine -6.860943 4.608588 8.271176
Head 6.514280 -12.406638 2.004074
LeftShoulder -9.746543 19.000029 12.954371
LeftArm 10.282836 -30.952067 -65.796558
LeftForeArm 7.429708 -0.000000 67.760297
LeftHand -36.719596 -0.000000 46.458169
LeftHandThumb1 -26.253704 0.000000 33.147579
RightShoulder -20.232359 8.351452 -20.306669
RightArm -17.213504 -24.546183 90.224095
RightForeArm -21.199541 0.000000 22.748605
RightHand -5.006910 -0.000000 10.759539
RightHandThumb1 -24.326973 -0.000000 -32.862282
LeftUpLeg -97.047290 2.481262 -36.938493
LeftLeg 110.947355 -0.000000 -0.000000
LeftFoot 34.748409 17.019130 -23.987201
LeftToeBase 5.660553 -0.000000 -0.000000
RightUpLeg -6.301975 2.688553 6.220377
RightLeg 13.820165 -0.000000 -0.000000
RightFoot -13.074495 1.777783 -8.139462
RightToeBase -1.119972 -0.000000 0.000000
706
root -7.657013 32.664632 -3.218770 3.609966 -19.221891 -1.760973
Spine -6.839408 4.657100 8.163615
Head 6.442200 -12.387674 2.006096
LeftShoulder -9.752889 18.994689 12.950110
LeftArm 10.250683 -31.066226 -65.821428
LeftForeArm 7.393182 -0.000000 67.682645
LeftHand -36.638177 -0.000000 46.578758
LeftHandThumb1 -26.253704 0.000000 33.147579
RightShoulder -20.205411 8.376196 -20.308651
RightArm -17.201647 -24.529025 90.279123
RightForeArm -21.245736 -0.000000 22.900924
RightHand -5.008222 -0.000000 10.719218
RightHandThumb1 -24.326973 -0.000000 -32.862282
LeftUpLeg -97.019236 2.506738 -36.760721
LeftLeg 110.721158 -0.000000 -0.000000
LeftFoot 34.744143 17.158123 -24.055038
LeftToeBase 5.611597 -0.000000 -0.000000
RightUpLeg -6.376069 2.670048 6.078377
RightLeg 13.821708 -0.000000 -0.000000
RightFoot -13.049038 1.850385 -8.146949
RightToeBase -1.113286 -0.000000 0.000000
707
root -7.638085 32.672912 -3.223661 3.614548 -19.273931 -1.666851
Spine -6.821778 4.696990 8.067836
Head 6.393947 -12.378484 1.989446
LeftShoulder -9.740816 18.969984 12.951169
LeftArm 10.167248 -31.149474 -65.789808
LeftForeArm 7.381531 0.000000 67.621159
LeftHand -36.646846 0.000000 46.688502
LeftHandThumb1 -26.253704 0.000000 33.147579
RightShoulder -20.181982 8.403199 -20.311806
RightArm -17.212427 -24.498052 90.325214
RightForeArm -21.238602 -0.000000 23.067764
RightHand -4.983809 -0.000000 10.628959
RightHandThumb1 -24.326973 -0.000000 -32.862282
LeftUpLeg -96.978155 2.526958 -36.538770
LeftLeg 110.518391 -0.000000 -0.000000
LeftFoot 34.773456 17.099792 -24.059296
LeftToeBase 5.652252 -0.000000 -0.000000
RightUpLeg -6.431078 2.643615 5.958282
RightLeg 13.811207 -0.000000 -0.000000
RightFoot -13.026231 1.923539 -8.060619
RightToeBase -1.066800 -0.000000 0.000000
708
root -7.620152 32.681216 -3.227167 3.615460 -19.323317 -1.560218
Spine -6.815601 4.730035 7.944967
Head 6.358310 -12.367942 2.010270
LeftShoulder -9.746201 18.970756 12.939852
LeftArm 10.123811 -31.234542 -65.730108
LeftForeArm 7.360614 -0.000000 67.523634
LeftHand -36.642753 -0.000000 46.713637
LeftHandThumb1 -26.253704 0.000000 33.147579
RightShoulder -20.159296 8.430140 -20.304981
RightArm -17.227034 -24.468812 90.375221
RightForeArm -21.265738 -0.000000 23.230649
RightHand -5.023498 -0.000000 10.562401
RightHandThumb1 -24.326973 -0.000000 -32.862282
LeftUpLeg -96.946363 2.532433 -36.391157
LeftLeg 110.347777 -0.000000 -0.000000
LeftFoot 34.620812 17.295736 -24.162526
LeftToeBase 5.706099 -0.000000 -0.000000
RightUpLeg -6.486244 2.605413 5.827665
RightLeg 13.815516 -0.000000 -0.000000
RightFoot -13.002289 1.982771 -8.083410
RightToeBase -1.129752 -0.000000 0.000000
709
root -7.602046 32.689037 -3.230372 3.618724 -19.367933 -1.460028
Spine -6.816542 4.763197 7.832811
Head 6.332783 -12.384120 2.015598
LeftShoulder -9.756622 18.972665 12.927338
LeftArm 10.123759 -31.276342 -65.684735
LeftForeArm 7.200459 -0.000000 67.387031
LeftHand -36.440632 -0.000000 46.837278
LeftHandThumb1 -26.253704 0.000000 33.147579
RightShoulder -20.144051 8.431386 -20.291366
RightArm -17.207535 -24.454952 90.397997
RightForeArm -21.299457 -0.000000 23.386331
RightHand -5.025304 -0.000000 10.402647
RightHandThumb1 -24.326973 -0.000000 -32.862282
LeftUpLeg -96.917725 2.529349 -36.244063
LeftLeg 110.193881 -0.000000 -0.000000
LeftFoot 34.506526 17.415599 -24.224270
LeftToeBase 5.859015 -0.000000 -0.000000
RightUpLeg -6.536971 2.598484 5.701634
RightLeg 13.811376 -0.000000 -0.000000
RightFoot -12.976018 2.025934 -8.094895
RightToeBase -1.142693 -0.000000 0.000000
710
root -7.584502 32.696405 -3.233004 3.602531 -19.398403 -1.349973
Spine -6.802365 4.793987 7.700941
Head 6.318616 -12.424358 2.019175
LeftShoulder -9.740023 18.932838 12.916619
LeftArm 10.055816 -31.327347 -65.585558
LeftForeArm 7.289212 -0.000000 67.291204
LeftHand -36.495249 0.000000 46.672040
LeftHandThumb1 -26.253704 0.000000 33.147579
RightShoulder -20.137060 8.452227 -20.281207
RightArm -17.210424 -24.425112 90.425029
RightForeArm -21.323072 0.000000 23.535159
RightHand -5.014968 -0.000000 10.289944
RightHandThumb1 -24.326973 -0.000000 -32.862282
LeftUpLeg -96.878506 2.530168 -36.121657
LeftLeg 110.051173 -0.000000 -0.000000
LeftFoot 34.451589 17.502833 -24.220792
LeftToeBase 5.797641 -0.000000 -0.000000
RightUpLeg -6.575787 2.599658 5.571362
RightLeg 13.820987 -0.000000 -0.000000
RightFoot -12.968101 1.964333 -8.061042
RightToeBase -1.126728 -0.000000 0.000000
711
root -7.567169 32.702602 -3.235957 3.589581 -19.430711 -1.253009
Spine -6.788868 4.824992 7.594787
Head 6.300552 -12.456700 1.990471
LeftShoulder -9.604107 18.823747 12.934649
LeftArm 9.811335 -31.424264 -65.409768
LeftForeArm 7.153103 0.000000 67.201706
LeftHand -36.377741 -0.000000 46.700576
LeftHandThumb1 -26.253704 0.000000 33.147579
RightShoulder -20.123651 8.461398 -20.297436
RightArm -17.202033 -24.406429 90.461006
RightForeArm -21.345195 -0.000000 23.682171
RightHand -5.096830 -0.000000 10.243078
RightHandThumb1 -24.326973 -0.000000 -32.862282
LeftUpLeg -96.847920 2.524839 -35.989019
LeftLeg 109.919792 -0.000000 -0.000000
LeftFoot 34.378263 17.566652 -24.264478
LeftToeBase 5.939236 -0.000000 -0.000000
RightUpLeg -6.616992 2.669179 5.454882
RightLeg 13.833254 -0.000000 -0.000000
RightFoot -12.934159 1.942111 -8.143605
RightToeBase -1.181318 -0.000000 0.000000
712
root -7.549122 32.709530 -3.238857 3.572537 -19.419696 -1.132821
Spine -6.796063 4.821202 7.443511
Head 6.312332 -12.503406 2.006273
LeftShoulder -9.521247 18.722471 12.983618
LeftArm 9.681028 -31.472643 -65.315277
LeftForeArm 7.087555 -0.000000 67.082454
LeftHand -36.369142 -0.000000 46.857544
LeftHandThumb1 -26.253704 0.000000 33.147579
RightShoulder -20.109555 8.470366 -20.285642
RightArm -17.202443 -24.356622 90.471640
RightForeArm -21.407364 -0.000000 23.836341
RightHand -5.080856 -0.000000 10.213871
RightHandThumb1 -24.326973 -0.000000 -32.862282
LeftUpLeg -96.780752 2.445691 -35.842360
LeftLeg 109.774256 -0.000000 -0.000000
LeftFoot 34.364154 17.605361 -24.256055
LeftToeBase 5.967921 -0.000000 -0.000000
RightUpLeg -6.664149 2.723143 5.317932
RightLeg 13.850072 -0.000000 -0.000000
RightFoot -12.912291 1.855038 -8.157003
RightToeBase -1.213119 -0.000000 0.000000
713
root -7.531062 32.715404 -3.242965 3.552715 -19.409288 -1.015042
Spine -6.798929 4.818474 7.291313
Head 6.323271 -12.547961 2.029860
LeftShoulder -9.466255 18.658625 13.045943
LeftArm 9.650244 -31.517759 -65.309680
LeftForeArm 7.102082 0.000000 66.952413
LeftHand -36.387527 -0.000000 46.997995
LeftHandThumb1 -26.253704 0.000000 33.147579
RightShoulder -20.090450 8.451107 -20.262072
RightArm -17.161071 -24.374410 90.475609
RightForeArm -21.411365 0.000000 23.974340
RightHand -5.044850 -0.000000 10.138500
RightHandThumb1 -24.326973 -0.000000 -32.862282
LeftUpLeg -96.697810 2.335399 -35.651137
LeftLeg 109.637811 -0.000000 -0.000000
LeftFoot 34.249491 17.655264 -24.457097
LeftToeBase 5.771852 -0.000000 -0.000000
RightUpLeg -6.719115 2.812631 5.186312
RightLeg 13.889047 -0.000000 -0.000000
RightFoot -12.896699 1.717000 -8.143849
RightToeBase -1.224075 -0.000000 0.000000
